<svg width="55" height="56" viewBox="0 0 55 56" fill="none" xmlns="http://www.w3.org/2000/svg">
<path d="M0 6.5C0 3.18629 2.68629 0.5 6 0.5H49C52.3137 0.5 55 3.18629 55 6.5V49.5C55 52.8137 52.3137 55.5 49 55.5H6C2.68629 55.5 0 52.8137 0 49.5V6.5Z" fill="#8A8D93" fill-opacity="0.16"/>
<g clip-path="url(#clip0_361_6268)">
<path d="M20.373 19H34.627C34.7848 19 34.9404 19.0373 35.081 19.1089C35.2216 19.1805 35.3433 19.2844 35.436 19.412L39.259 24.668C39.327 24.7615 39.3605 24.8757 39.3537 24.9911C39.347 25.1065 39.3004 25.216 39.222 25.301L27.867 37.602C27.7771 37.6992 27.6522 37.7568 27.5198 37.7621C27.3875 37.7673 27.2584 37.7198 27.161 37.63C27.154 37.624 23.361 33.515 15.778 25.301C15.6996 25.216 15.6531 25.1065 15.6464 24.9911C15.6396 24.8757 15.6731 24.7615 15.741 24.668L19.564 19.412C19.6568 19.2844 19.7785 19.1805 19.9191 19.1089C20.0597 19.0373 20.2152 19 20.373 19ZM20.883 21L18.083 24.85L27.5 35.05L36.917 24.85L34.117 21H20.883Z" fill="white"/>
</g>
<defs>
<clipPath id="clip0_361_6268">
<rect width="24" height="24" fill="white" transform="translate(15.5 16)"/>
</clipPath>
</defs>
</svg>
